<svg width="49" height="49" viewBox="0 0 49 49" fill="none" xmlns="http://www.w3.org/2000/svg">
<path d="M8.12908 32.4388C3.68536 23.4056 7.40588 12.4804 16.4391 8.03664C25.4723 3.59292 36.3975 7.31345 40.8413 16.3467C45.285 25.3799 41.5645 36.3051 32.5312 40.7488C23.498 45.1925 12.5728 41.472 8.12908 32.4388Z" fill="#445A68"/>
<path d="M30.0675 18.9155C28.7828 17.0498 26.7479 15.9834 24.4837 15.9834C22.2208 15.9834 20.1858 17.0498 18.9012 18.9155C17.6245 20.7679 17.3286 23.1 18.1109 25.1656C18.3201 25.7386 18.6519 26.2847 19.097 26.7911L24.0372 32.6019C24.1478 32.7352 24.3118 32.8017 24.4837 32.8017C24.6569 32.8017 24.8208 32.7352 24.9328 32.6019L29.8703 26.8047C30.3167 26.285 30.6498 25.7383 30.8564 25.1786C31.64 23.0997 31.3455 20.7679 30.0675 18.9155ZM29.7543 24.7654C29.5957 25.1919 29.3332 25.6186 28.9787 26.0317C28.9787 26.0317 28.9774 26.0317 28.976 26.0317L24.4837 31.3089L19.9886 26.0317C19.6341 25.6186 19.3742 25.1922 19.2116 24.7524C18.5653 23.0466 18.8106 21.1144 19.8687 19.5819C20.9308 18.0493 22.6126 17.1697 24.4837 17.1697C26.3561 17.1697 28.0379 18.0493 29.1 19.5819C30.1568 21.1144 30.4033 23.0463 29.7543 24.7654Z" fill="white"/>
<path d="M24.4838 19.4752C22.6687 19.4752 21.1908 20.954 21.1908 22.7664C21.1908 24.5788 22.6687 26.0584 24.4838 26.0584C26.3015 26.0584 27.7781 24.5788 27.7781 22.7664C27.7781 20.954 26.3015 19.4752 24.4838 19.4752ZM24.4838 24.8858C23.3164 24.8858 22.3675 23.9392 22.3675 22.7664C22.3675 21.607 23.3164 20.6477 24.4838 20.6477C25.6512 20.6477 26.6014 21.607 26.6014 22.7664C26.6014 23.9392 25.6512 24.8858 24.4838 24.8858Z" fill="white"/>
</svg>
