<svg width="50" height="49" viewBox="0 0 50 49" fill="none" xmlns="http://www.w3.org/2000/svg">
<path d="M8.67522 32.4388C4.2315 23.4056 7.95202 12.4804 16.9852 8.03664C26.0185 3.59292 36.9437 7.31345 41.3874 16.3467C45.8311 25.3799 42.1106 36.3051 33.0774 40.7488C24.0442 45.1925 13.1189 41.472 8.67522 32.4388Z" fill="url(#paint0_radial_4_822)"/>
<path d="M31.0282 32.082C30.7897 32.082 30.5792 31.922 30.5099 31.6955C30.4432 31.4689 30.5339 31.2158 30.7351 31.0825C31.2442 30.7494 31.6773 30.3096 32.0064 29.8032C32.3183 29.3235 32.4249 28.9505 32.325 28.6573C32.1211 28.0843 31.0297 27.6712 30.1021 27.378C29.2666 27.1115 28.3497 27.3243 27.7287 27.9507L27.3768 28.2975C27.3142 28.3641 27.2369 28.4172 27.1516 28.4439C26.9104 28.5105 25.5858 28.7506 23.1337 26.2985C22.9218 26.0853 22.9204 25.7387 23.1323 25.5255C23.3429 25.3256 23.6867 25.3256 23.8973 25.5255C25.5058 27.138 26.448 27.3644 26.7572 27.391L26.9651 27.1913C27.8713 26.2717 29.2092 25.9521 30.4312 26.3519C31.6439 26.7383 32.9673 27.2314 33.3431 28.2975C33.563 28.9238 33.4151 29.6166 32.9113 30.3895C32.4995 31.0292 31.9585 31.5755 31.3228 32.002C31.2348 32.0553 31.1322 32.082 31.0282 32.082ZM28.4322 32.8017C25.9588 32.8017 23.1203 31.3755 20.5856 28.8434C20.4457 28.7102 20.3884 28.5107 20.4377 28.3242C20.4883 28.1243 20.635 27.9776 20.8255 27.9376C21.0134 27.8843 21.2146 27.9375 21.3506 28.0841C23.7414 30.4695 26.4906 31.8288 28.6961 31.7222C28.8387 31.7088 28.9787 31.7623 29.0866 31.8556C29.1932 31.9489 29.2572 32.0952 29.2625 32.2284C29.2785 32.5349 29.048 32.7884 28.7495 32.8017C28.6442 32.8017 28.5389 32.8017 28.4322 32.8017Z" fill="white"/>
<path d="M20.9682 29.0035C20.8256 29.0035 20.687 28.95 20.5857 28.8434C17.8604 26.1115 16.3892 22.9536 16.6517 20.3816C16.805 18.7824 17.6859 17.3559 19.0358 16.5164C19.8061 16.01 20.5098 15.8636 21.1254 16.0901C22.1902 16.4633 22.694 17.7829 23.0818 18.9956C23.4763 20.2216 23.1497 21.5537 22.2408 22.4599L22.029 22.6734C22.0543 22.9532 22.2648 23.8996 23.896 25.5254C24.0999 25.7387 24.0972 26.0849 23.8893 26.2848C23.6801 26.498 23.343 26.4984 23.1324 26.2985C20.6803 23.8464 20.9175 22.5137 20.9908 22.2738C21.0161 22.1939 21.0628 22.114 21.1254 22.0474L21.4772 21.7006C22.0996 21.0742 22.3208 20.1683 22.0516 19.3287C21.7545 18.3959 21.34 17.3025 20.7656 17.1027C20.4831 17.0094 20.1006 17.1163 19.6289 17.4228C18.5481 18.0891 17.8431 19.2216 17.7258 20.4876C17.4966 22.7398 18.8492 25.5786 21.3493 28.084C21.5025 28.2306 21.5492 28.4704 21.4653 28.6703C21.3826 28.8702 21.1854 29.0035 20.9668 29.0035H20.9682Z" fill="white"/>
<defs>
<radialGradient id="paint0_radial_4_822" cx="0" cy="0" r="1" gradientUnits="userSpaceOnUse" gradientTransform="translate(25.2808 3.44043) rotate(90.0008) scale(49.9102 31.4841)">
<stop stop-color="#FEE49A"/>
<stop offset="1" stop-color="#BB8D37"/>
</radialGradient>
</defs>
</svg>
