<svg width="18" height="18" viewBox="0 0 18 18" fill="none" xmlns="http://www.w3.org/2000/svg">
<path d="M15.3493 17.0821C15.1107 17.0821 14.9002 16.9221 14.8309 16.6955C14.7642 16.469 14.8549 16.2155 15.0561 16.0956C15.5652 15.7491 15.9983 15.3097 16.3274 14.8033C16.6393 14.3235 16.7459 13.9506 16.6459 13.6574C16.442 13.0977 15.3506 12.6713 14.4231 12.3781C13.5875 12.1115 12.6706 12.3244 12.0496 12.9507L11.6978 13.2975C11.6352 13.3642 11.5579 13.4173 11.4726 13.4439C11.2314 13.5106 9.9067 13.7506 7.45462 11.2986C7.24272 11.0853 7.24142 10.7384 7.45331 10.5385C7.66387 10.3253 8.00766 10.3256 8.21822 10.5255C9.82674 12.138 10.769 12.3644 11.0781 12.3911L11.286 12.1913C12.1922 11.2718 13.5302 10.9521 14.7522 11.3519C15.965 11.7384 17.2883 12.2447 17.6641 13.2975C17.884 13.9239 17.736 14.63 17.2323 15.3896C16.8205 16.0292 16.2795 16.5756 15.6438 17.002C15.5558 17.0553 15.4532 17.0821 15.3493 17.0821ZM12.7533 17.8148C10.2799 17.8148 7.44131 16.3755 4.9066 13.8435C4.76667 13.7102 4.70938 13.5108 4.75869 13.3242C4.80933 13.1243 4.9559 12.9777 5.14647 12.9377C5.33437 12.8844 5.53562 12.9375 5.67155 13.0841C8.06233 15.4695 10.8116 16.8288 13.0171 16.7222C13.1597 16.7089 13.2996 16.7623 13.4076 16.8556C13.5142 16.9489 13.5782 17.0952 13.5835 17.2285C13.5995 17.535 13.369 17.7884 13.0704 17.8017C12.9652 17.8017 12.8599 17.8148 12.7533 17.8148Z" fill="#535A64"/>
<path d="M5.28909 14.0035C5.1465 14.0035 5.00792 13.95 4.90664 13.8434C2.18136 11.1115 0.710121 7.95363 0.972654 5.38161C1.12591 3.79575 2.00679 2.36929 3.35677 1.51639C4.12705 1.00998 4.83068 0.863626 5.44636 1.09018C6.51115 1.46332 7.01488 2.78288 7.40268 3.9956C7.79715 5.22164 7.47067 6.55377 6.5618 7.45997L6.34991 7.67341C6.37523 7.95326 6.58579 8.89932 8.21696 10.5385C8.42086 10.7384 8.41819 11.0849 8.21029 11.2848C8.00107 11.4981 7.66391 11.4984 7.45335 11.2985C5.00127 8.84643 5.23845 7.51375 5.31175 7.27387C5.33707 7.19391 5.38373 7.11406 5.44636 7.04742L5.79819 6.7006C6.42054 6.07425 6.64176 5.16833 6.37257 4.32876C6.07539 3.3959 5.66093 2.30258 5.08656 2.10268C4.80404 2.0094 4.42153 2.11632 3.94977 2.42283C2.86899 3.08916 2.16405 4.22165 2.04677 5.48767C1.81756 7.73986 3.17019 10.5787 5.67025 13.0841C5.8235 13.2306 5.87015 13.4704 5.7862 13.6703C5.70357 13.8702 5.50635 14.0035 5.28779 14.0035H5.28909Z" fill="#535A64"/>
</svg>
